<?xml version="1.0" standalone="no"?>
<!DOCTYPE svg PUBLIC "-//W3C//DTD SVG 20010904//EN"
 "http://www.w3.org/TR/2001/REC-SVG-20010904/DTD/svg10.dtd">
<svg version="1.0" xmlns="http://www.w3.org/2000/svg"
 width="103.787617pt" height="128.000000pt" viewBox="0 0 103.787617 128.000000"
 preserveAspectRatio="xMidYMid meet">
<metadata>
Created by potrace 1.12, written by Peter Selinger 2001-2015
</metadata>
<g transform="translate(-12.000000,128.000000) scale(0.100000,-0.100000)"
fill="#000000" stroke="none">
<path d="M915 1231 c-19 -39 -36 -55 -81 -80 l-58 -31 -208 0 -208 0 -29 -32
c-84 -93 -211 -254 -211 -266 0 -8 31 -54 68 -101 37 -47 71 -92 76 -99 14
-23 -5 -52 -47 -73 -81 -41 -82 -54 -8 -89 40 -18 53 -31 72 -71 28 -61 50
-63 75 -8 37 83 35 84 157 -71 64 -81 117 -140 127 -140 18 0 513 619 518 648
1 9 -30 56 -72 107 -42 50 -76 98 -76 107 0 11 17 26 43 39 81 41 82 54 9 88
-39 19 -51 31 -69 72 -12 28 -28 49 -37 49 -9 0 -27 -22 -41 -49z m92 -100
l28 -13 -27 -14 c-15 -8 -34 -27 -42 -42 l-14 -27 -13 28 c-7 16 -24 34 -38
42 l-26 13 26 12 c15 7 32 24 39 39 l12 26 13 -26 c8 -14 26 -31 42 -38z
m-507 -68 c0 -4 -14 -54 -32 -110 l-31 -103 -120 0 c-113 0 -119 1 -105 18 8
9 49 59 92 110 l77 92 60 0 c32 0 59 -3 59 -7z m251 -83 c14 -47 29 -95 33
-107 l7 -23 -151 0 c-139 0 -151 1 -146 18 28 91 59 188 63 195 3 4 41 6 86 5
l81 -3 27 -85z m120 80 c10 -6 30 -33 44 -60 27 -53 33 -58 54 -37 10 10 15 8
29 -9 9 -12 32 -40 50 -63 l34 -41 -120 0 -119 0 -31 103 c-18 56 -32 106 -32
110 0 11 69 8 91 -3z m-370 -490 c38 -124 69 -231 69 -238 0 -7 -26 20 -59 60
-48 60 -56 75 -45 84 26 21 15 43 -32 67 -34 17 -53 36 -73 73 -17 32 -33 48
-44 48 -16 -2 -117 109 -117 129 0 4 53 6 117 5 l117 -3 67 -225z m289 224 c0
-3 -8 -35 -17 -70 -13 -50 -15 -66 -5 -76 19 -19 37 7 59 82 l19 65 118 3 c79
2 117 -1 114 -8 -6 -19 -360 -461 -365 -456 -3 3 2 26 11 52 20 59 20 80 2 87
-21 8 -32 -10 -57 -96 -13 -42 -26 -77 -29 -77 -6 0 -151 476 -150 493 0 8
300 10 300 1z m-406 -282 c18 -9 17 -11 -12 -26 -17 -9 -33 -25 -37 -36 -8
-26 -22 -26 -30 0 -4 11 -20 27 -37 36 l-30 16 30 18 c17 10 33 28 37 40 7 21
8 21 33 -8 15 -17 36 -35 46 -40z"/>
<path d="M732 558 c2 -13 10 -23 18 -23 8 0 16 10 18 23 3 17 -2 22 -18 22
-16 0 -21 -5 -18 -22z"/>
<path d="M895 280 c-20 -39 -36 -55 -75 -75 -28 -14 -50 -32 -50 -40 0 -8 22
-26 50 -40 39 -20 55 -36 75 -75 14 -28 32 -50 40 -50 8 0 26 22 40 50 20 39
36 55 75 75 28 14 50 32 50 40 0 8 -22 26 -50 40 -39 20 -55 36 -75 75 -14 28
-32 50 -40 50 -8 0 -26 -22 -40 -50z m72 -83 c4 -4 17 -14 28 -22 19 -13 19
-14 -6 -25 -15 -7 -32 -24 -39 -39 -11 -25 -12 -25 -25 -6 -18 25 -25 32 -50
50 -19 13 -19 14 6 25 15 7 32 24 39 39 11 25 12 25 25 6 8 -11 18 -24 22 -28z"/>
</g>
</svg>
