<?xml version="1.0" standalone="no"?>
<!DOCTYPE svg PUBLIC "-//W3C//DTD SVG 20010904//EN"
 "http://www.w3.org/TR/2001/REC-SVG-20010904/DTD/svg10.dtd">
<svg version="1.0" xmlns="http://www.w3.org/2000/svg"
 width="399.793467pt" height="512.013644pt" viewBox="0 0 399.793467 512.013644"
 preserveAspectRatio="xMidYMid meet">
<metadata>
Created by potrace 1.12, written by Peter Selinger 2001-2015
</metadata>
<g transform="translate(-56.100829,512.000000) scale(0.100000,-0.100000)"
fill="#000000" stroke="none">
<path d="M1360 4920 l0 -200 200 0 200 0 -2 -372 -3 -372 -35 -8 c-154 -38
-336 -120 -485 -221 -118 -80 -312 -274 -393 -393 -117 -173 -191 -346 -236
-545 -99 -447 -38 -842 208 -1354 197 -410 532 -885 923 -1310 l129 -140 691
-3 691 -2 123 132 c396 428 737 910 935 1323 246 512 307 906 207 1355 -64
294 -199 537 -418 755 -197 198 -424 333 -662 395 l-68 18 -3 371 -2 371 200
0 200 0 0 200 0 200 -1200 0 -1200 0 0 -200z m1600 -560 l0 -360 -400 0 -400
0 0 360 0 360 400 0 400 0 0 -360z m407 -797 c176 -62 321 -151 447 -277 l81
-81 -668 -3 c-367 -1 -967 -1 -1335 0 l-667 3 75 75 c118 118 258 210 405 266
142 53 137 53 880 51 l690 -2 92 -32z m756 -837 c73 -333 33 -636 -135 -1013
l-51 -113 -188 0 -189 0 0 400 0 400 -400 0 -400 0 0 -200 0 -200 200 0 200 0
0 -200 0 -200 -400 0 -400 0 0 400 0 400 -400 0 -400 0 0 -200 0 -200 200 0
200 0 0 -200 0 -200 -389 0 -388 0 -38 82 c-180 395 -223 693 -149 1041 l17
77 1547 0 1547 0 16 -74z m-429 -1538 c-82 -140 -332 -464 -532 -691 l-87 -97
-515 0 -516 0 -98 110 c-172 194 -412 505 -508 658 l-20 32 1142 0 c910 0
1140 -3 1134 -12z"/>
</g>
</svg>
