<?xml version="1.0" standalone="no"?>
<!DOCTYPE svg PUBLIC "-//W3C//DTD SVG 20010904//EN"
 "http://www.w3.org/TR/2001/REC-SVG-20010904/DTD/svg10.dtd">
<svg version="1.0" xmlns="http://www.w3.org/2000/svg"
 width="447.000000pt" height="447.327217pt" viewBox="0 0 447.000000 447.327217"
 preserveAspectRatio="xMidYMid meet">
<metadata>
Created by potrace 1.12, written by Peter Selinger 2001-2015
</metadata>
<g transform="translate(-32.500000,479.827217) scale(0.100000,-0.100000)"
fill="#000000" stroke="none">
<path d="M2455 4764 c-1070 -571 -2007 -1082 -2038 -1112 -21 -21 -50 -62 -65
-92 -27 -54 -27 -58 -27 -250 l0 -195 34 -63 c38 -70 70 -101 145 -139 45 -23
66 -27 174 -31 l122 -4 0 -798 0 -798 -123 -4 c-102 -4 -130 -8 -172 -29 -63
-30 -123 -90 -155 -154 -25 -49 -25 -54 -25 -295 l0 -245 27 -51 c40 -76 70
-107 140 -145 l63 -34 2005 0 2005 0 63 34 c70 38 100 69 140 145 l27 51 0
245 0 245 -34 63 c-38 70 -70 101 -145 139 -45 23 -66 27 -173 31 l-123 4 0
798 0 798 123 4 c107 4 128 8 173 31 75 38 107 69 145 139 l34 63 0 195 c0
192 0 196 -27 250 -15 30 -44 72 -65 92 -26 25 -368 215 -1063 589 -822 443
-1034 553 -1070 556 -38 4 -56 -2 -115 -33z m1069 -824 l956 -515 0 -112 0
-113 -1920 0 -1920 0 0 113 0 112 958 516 c526 284 960 516 964 515 3 0 436
-233 962 -516z m-1924 -1860 l0 -800 -240 0 -240 0 0 800 0 800 240 0 240 0 0
-800z m800 0 l0 -800 -240 0 -240 0 0 800 0 800 240 0 240 0 0 -800z m800 0
l0 -800 -240 0 -240 0 0 800 0 800 240 0 240 0 0 -800z m800 0 l0 -800 -240 0
-240 0 0 800 0 800 240 0 240 0 0 -800z m480 -1280 l0 -160 -1920 0 -1920 0 0
160 0 160 1920 0 1920 0 0 -160z"/>
</g>
</svg>
