<?xml version="1.0" standalone="no"?>
<!DOCTYPE svg PUBLIC "-//W3C//DTD SVG 20010904//EN"
 "http://www.w3.org/TR/2001/REC-SVG-20010904/DTD/svg10.dtd">
<svg version="1.0" xmlns="http://www.w3.org/2000/svg"
 width="512.000000pt" height="401.494317pt" viewBox="0 0 512.000000 401.494317"
 preserveAspectRatio="xMidYMid meet">
<metadata>
Created by potrace 1.12, written by Peter Selinger 2001-2015
</metadata>
<g transform="translate(-0.000000,456.492281) scale(0.100000,-0.100000)"
fill="#000000" stroke="none">
<path d="M2340 4560 c-703 -34 -1388 -233 -1987 -579 -159 -91 -320 -199 -338
-225 -13 -18 -15 -232 -15 -1579 0 -1097 3 -1564 11 -1579 27 -51 -105 -48
2549 -48 2654 0 2522 -3 2549 48 8 15 11 301 11 940 0 905 0 920 -20 945 -17
21 -44 31 -168 61 -435 104 -972 192 -1385 228 -81 7 -151 15 -155 18 -5 3
-80 239 -167 524 -88 286 -167 529 -177 540 -14 18 -31 22 -134 26 l-118 5
-78 315 c-61 243 -84 320 -101 337 -29 29 -71 33 -277 23z m219 -425 c35 -141
62 -257 60 -259 -2 -1 -92 -10 -199 -19 -545 -47 -1097 -166 -1620 -349 -133
-46 -439 -169 -552 -222 l-78 -35 0 208 0 209 78 50 c265 169 568 320 841 419
429 155 900 247 1296 252 l110 1 64 -255z m504 -876 c77 -248 137 -452 135
-455 -2 -2 -107 1 -234 7 -276 14 -813 6 -1114 -16 -390 -28 -824 -83 -1180
-150 -128 -24 -451 -92 -483 -101 -16 -5 -17 10 -15 257 l3 262 125 58 c778
359 1710 578 2510 588 l115 1 138 -451z m137 -629 c529 -36 1067 -112 1563
-222 l187 -42 0 -386 0 -386 -142 23 c-1427 229 -3007 229 -4496 -1 l-142 -22
0 386 0 385 103 23 c650 147 1192 219 1922 256 132 7 850 -3 1005 -14z m-120
-1020 c460 -18 869 -51 1300 -106 191 -24 503 -70 548 -81 l22 -5 0 -344 0
-344 -2390 0 -2390 0 0 344 0 344 27 6 c196 41 783 114 1168 145 564 47 1189
61 1715 41z"/>
<path d="M1880 4095 l0 -125 85 0 85 0 0 125 0 125 -85 0 -85 0 0 -125z"/>
<path d="M1370 4010 l0 -131 83 3 82 3 3 128 3 127 -86 0 -85 0 0 -130z"/>
<path d="M850 3840 l0 -130 85 0 85 0 0 130 0 130 -85 0 -85 0 0 -130z"/>
<path d="M340 3625 l0 -85 85 0 85 0 0 85 0 85 -85 0 -85 0 0 -85z"/>
<path d="M2472 3243 l3 -298 85 0 85 0 3 298 2 297 -90 0 -90 0 2 -297z"/>
<path d="M1795 3447 c-3 -7 -4 -123 -3 -257 l3 -245 83 -3 82 -3 0 261 0 260
-80 0 c-56 0 -82 -4 -85 -13z"/>
<path d="M1192 3158 l3 -213 85 0 85 0 3 213 2 212 -90 0 -90 0 2 -212z"/>
<path d="M770 3030 l0 -170 85 0 85 0 0 170 0 170 -85 0 -85 0 0 -170z"/>
<path d="M340 2900 l0 -130 85 0 85 0 0 130 0 130 -85 0 -85 0 0 -130z"/>
<path d="M1790 2220 l0 -300 85 0 85 0 0 300 0 300 -85 0 -85 0 0 -300z"/>
<path d="M2477 2514 c-4 -4 -7 -139 -7 -301 l0 -293 90 0 90 0 -2 298 -3 297
-80 3 c-45 1 -84 0 -88 -4z"/>
<path d="M3160 2220 l0 -300 85 0 85 0 0 300 0 300 -85 0 -85 0 0 -300z"/>
<path d="M1190 2175 l0 -255 90 0 90 0 0 255 0 255 -90 0 -90 0 0 -255z"/>
<path d="M3750 2175 l0 -255 90 0 90 0 0 255 0 255 -90 0 -90 0 0 -255z"/>
<path d="M770 2090 l0 -261 83 3 82 3 3 258 2 257 -85 0 -85 0 0 -260z"/>
<path d="M4182 2093 l3 -258 83 -3 82 -3 0 261 0 260 -85 0 -85 0 2 -257z"/>
<path d="M342 2048 l3 -213 83 -3 82 -3 0 216 0 215 -85 0 -85 0 2 -212z"/>
<path d="M4610 2045 l0 -216 83 3 82 3 3 213 2 212 -85 0 -85 0 0 -215z"/>
<path d="M1790 1195 l0 -295 85 0 85 0 0 295 0 295 -85 0 -85 0 0 -295z"/>
<path d="M2470 1195 l0 -295 90 0 90 0 0 295 0 295 -90 0 -90 0 0 -295z"/>
<path d="M3160 1195 l0 -295 85 0 85 0 0 295 0 295 -85 0 -85 0 0 -295z"/>
<path d="M1197 1404 c-4 -4 -7 -119 -7 -256 l0 -248 90 0 90 0 -2 253 -3 252
-80 3 c-45 1 -84 0 -88 -4z"/>
<path d="M3757 1404 c-4 -4 -7 -119 -7 -256 l0 -248 90 0 90 0 -2 253 -3 252
-80 3 c-45 1 -84 0 -88 -4z"/>
<path d="M770 1110 l0 -210 85 0 85 0 0 210 0 210 -85 0 -85 0 0 -210z"/>
<path d="M4180 1110 l0 -210 85 0 85 0 0 210 0 210 -85 0 -85 0 0 -210z"/>
<path d="M340 1070 l0 -170 85 0 85 0 0 170 0 170 -85 0 -85 0 0 -170z"/>
<path d="M4610 1070 l0 -170 85 0 85 0 0 170 0 170 -85 0 -85 0 0 -170z"/>
</g>
</svg>
