<?xml version="1.0" standalone="no"?>
<!DOCTYPE svg PUBLIC "-//W3C//DTD SVG 20010904//EN"
 "http://www.w3.org/TR/2001/REC-SVG-20010904/DTD/svg10.dtd">
<svg version="1.0" xmlns="http://www.w3.org/2000/svg"
 width="510.733489pt" height="505.360741pt" viewBox="0 0 510.733489 505.360741"
 preserveAspectRatio="xMidYMid meet">
<metadata>
Created by potrace 1.12, written by Peter Selinger 2001-2015
</metadata>
<g transform="translate(-0.333207,508.253798) scale(0.100000,-0.100000)"
fill="#000000" stroke="none">
<path d="M2449 4942 c-192 -296 -337 -588 -444 -897 -21 -60 -41 -113 -44
-117 -7 -8 -199 61 -391 142 -187 78 -416 198 -585 305 -82 52 -152 95 -155
95 -6 0 -53 -186 -70 -280 -49 -258 -21 -644 66 -907 30 -90 108 -259 158
-342 24 -40 38 -78 46 -126 58 -380 171 -724 324 -993 98 -174 229 -341 343
-437 56 -48 60 -54 40 -59 -37 -10 -408 -7 -544 5 -298 24 -602 72 -1003 158
-102 22 -186 39 -187 38 -2 -2 145 -240 204 -332 71 -108 184 -244 297 -357
715 -719 1627 -966 2630 -712 561 142 934 447 1200 980 87 176 140 313 268
699 120 361 182 503 252 581 46 51 50 54 244 125 22 9 21 11 -47 113 -39 58
-105 164 -147 238 -133 233 -230 341 -367 408 -119 58 -190 74 -332 74 -102 0
-131 -4 -192 -25 l-71 -25 -22 56 c-118 292 -265 470 -630 760 -410 327 -507
448 -685 855 -27 61 -51 113 -55 117 -3 4 -49 -59 -101 -140z m139 -605 c96
-127 261 -284 497 -472 110 -87 237 -196 282 -242 129 -132 223 -286 282 -466
l23 -68 -52 -67 c-28 -37 -54 -66 -57 -65 -2 1 -31 42 -63 90 -159 239 -347
388 -685 545 -106 49 -224 96 -482 192 l-72 27 30 85 c50 142 103 273 165 407
32 70 60 127 61 127 1 0 33 -42 71 -93z m-1163 -551 c164 -71 258 -106 685
-261 379 -137 452 -166 605 -239 287 -137 450 -279 569 -497 136 -249 123
-436 -64 -899 -38 -95 -70 -177 -70 -181 0 -7 290 -123 294 -118 2 2 30 74 64
159 141 355 181 504 186 680 2 92 4 98 52 196 89 178 207 315 322 371 50 25
68 28 147 27 181 -2 264 -63 393 -288 l51 -90 -43 -46 c-111 -118 -172 -254
-331 -735 -172 -522 -275 -739 -453 -958 -240 -296 -551 -450 -1077 -534 -139
-22 -564 -25 -695 -5 -408 64 -785 232 -1115 499 -91 74 -217 193 -204 193 3
0 57 -7 120 -15 506 -68 1018 -56 1326 31 46 12 60 12 125 -2 40 -9 121 -18
181 -21 l107 -6 0 156 c0 175 4 167 -83 167 -71 0 -218 32 -302 65 -281 111
-497 339 -662 700 -38 84 -113 286 -113 306 0 5 33 -13 73 -40 125 -85 444
-241 492 -241 9 0 120 291 112 295 -1 0 -46 18 -99 39 -499 198 -823 560 -928
1035 -21 92 -47 388 -37 414 5 13 24 6 114 -39 59 -29 175 -83 258 -118z"/>
<path d="M4214 2779 c-28 -14 -54 -61 -54 -98 0 -20 10 -42 29 -63 25 -28 36
-33 75 -33 58 0 95 33 103 93 5 37 2 45 -30 77 -37 37 -79 45 -123 24z"/>
</g>
</svg>
