<?xml version="1.0" standalone="no"?>
<!DOCTYPE svg PUBLIC "-//W3C//DTD SVG 20010904//EN"
 "http://www.w3.org/TR/2001/REC-SVG-20010904/DTD/svg10.dtd">
<svg version="1.0" xmlns="http://www.w3.org/2000/svg"
 width="412.070414pt" height="496.551145pt" viewBox="0 0 412.070414 496.551145"
 preserveAspectRatio="xMidYMid meet">
<metadata>
Created by potrace 1.12, written by Peter Selinger 2001-2015
</metadata>
<g transform="translate(-50.000000,503.761356) scale(0.100000,-0.100000)"
fill="#000000" stroke="none">
<path d="M2100 5011 c-256 -84 -540 -230 -738 -378 -393 -297 -587 -686 -543
-1092 6 -60 20 -144 31 -187 11 -42 18 -79 16 -82 -3 -2 -33 17 -67 44 -70 53
-107 60 -142 26 -29 -29 -26 -74 13 -197 38 -118 103 -252 169 -350 l48 -71
-35 4 c-70 9 -112 -45 -92 -117 25 -94 140 -235 252 -311 59 -39 59 -50 -2
-50 -34 0 -67 -26 -75 -61 -12 -50 159 -268 326 -416 160 -141 333 -244 506
-302 l86 -29 -264 -87 c-490 -160 -801 -243 -977 -260 -61 -6 -75 -11 -92 -32
-11 -14 -20 -33 -20 -43 0 -23 36 -67 61 -75 11 -4 72 -31 136 -61 l117 -55
-87 -87 c-73 -74 -87 -92 -87 -120 0 -38 30 -72 62 -72 13 0 77 9 143 20 65
10 120 18 121 17 1 -1 -6 -43 -16 -92 -26 -122 -25 -139 6 -164 37 -29 67 -26
165 18 l87 38 7 -85 c6 -72 11 -88 31 -107 55 -51 328 -114 534 -122 272 -10
489 49 676 187 74 55 76 73 25 174 -54 106 -74 189 -74 301 0 93 18 182 53
263 l20 47 198 28 c220 30 386 69 519 120 355 137 674 387 915 715 93 127 142
178 202 209 41 21 60 24 130 22 138 -3 139 -3 158 21 34 42 24 73 -44 142 -35
35 -89 100 -121 145 -66 96 -133 153 -214 183 -48 18 -73 21 -145 18 -75 -4
-96 -9 -160 -41 -40 -20 -118 -73 -173 -118 -171 -140 -301 -186 -494 -176
-391 19 -791 340 -1026 822 -240 490 -257 1049 -50 1591 24 61 55 134 69 162
34 67 34 104 0 131 -33 26 -40 26 -144 -8z m1985 -2616 c50 -49 20 -125 -50
-125 -72 0 -104 86 -49 129 35 28 69 26 99 -4z"/>
<path d="M3268 4586 c-394 -344 -656 -842 -739 -1400 -29 -198 -27 -218 23
-285 56 -74 178 -196 255 -254 192 -146 421 -219 587 -188 89 16 153 51 241
129 44 39 103 86 132 104 47 30 54 39 73 98 44 139 51 270 21 415 -23 112 -62
206 -146 355 -143 252 -175 491 -103 765 20 79 21 84 5 109 -26 39 -59 42
-129 12 -33 -15 -63 -25 -65 -22 -3 3 3 38 13 79 15 64 15 80 4 107 -12 29
-43 50 -74 50 -8 0 -51 -33 -98 -74z"/>
</g>
</svg>
