<?xml version="1.0" standalone="no"?>
<!DOCTYPE svg PUBLIC "-//W3C//DTD SVG 20010904//EN"
 "http://www.w3.org/TR/2001/REC-SVG-20010904/DTD/svg10.dtd">
<svg version="1.0" xmlns="http://www.w3.org/2000/svg"
 width="557.000000pt" height="557.159964pt" viewBox="0 0 557.000000 557.159964"
 preserveAspectRatio="xMidYMid meet">
<metadata>
Created by potrace 1.12, written by Peter Selinger 2001-2015
</metadata>
<g transform="translate(-0.500000,557.659964) scale(0.100000,-0.100000)"
fill="#000000" stroke="none">
<path d="M435 5570 c-191 -39 -346 -177 -411 -370 -18 -53 -19 -136 -19 -2410
0 -2274 1 -2357 19 -2410 56 -166 170 -285 336 -350 l65 -25 2365 0 2365 0 65
25 c166 65 280 184 336 350 18 53 19 136 19 2410 0 2274 -1 2357 -19 2410 -56
166 -170 285 -336 350 l-65 25 -2340 1 c-1287 1 -2358 -2 -2380 -6z m2265
-535 c0 -8 4 -15 9 -15 7 0 71 -95 71 -106 0 -2 61 -112 135 -244 74 -132 135
-242 135 -244 0 -8 49 -80 67 -98 9 -10 25 -18 34 -18 38 0 205 -61 313 -115
172 -85 328 -208 447 -352 105 -128 149 -202 249 -415 35 -76 13 -87 -66 -34
-64 43 -197 114 -294 156 -62 27 -93 50 -184 137 -60 58 -134 123 -164 145
-70 52 -194 114 -256 128 -95 21 -114 39 -189 183 -25 47 -66 121 -90 164 -51
91 -100 180 -134 243 -106 196 -123 219 -150 202 -21 -13 -101 -188 -124 -272
-20 -71 -24 -108 -24 -220 1 -116 5 -147 27 -220 14 -47 33 -98 42 -115 9 -16
16 -36 16 -43 0 -22 50 -112 62 -112 7 0 50 12 97 27 74 24 103 27 206 27 159
0 250 -27 395 -119 65 -41 352 -326 423 -420 75 -99 146 -250 178 -375 20 -78
24 -119 24 -230 -1 -118 -4 -145 -28 -220 -65 -204 -200 -366 -385 -462 -154
-80 -369 -102 -536 -54 -202 59 -327 155 -458 352 -119 180 -161 247 -186 298
-14 28 -31 58 -37 66 -14 18 -37 83 -73 205 -22 78 -26 109 -26 235 -1 125 2
155 22 216 38 116 88 204 166 290 25 29 46 58 46 65 0 8 -21 67 -46 132 -36
91 -50 117 -65 117 -16 0 -148 -161 -221 -270 -9 -14 -53 -72 -97 -130 -89
-115 -95 -136 -65 -215 9 -22 29 -101 45 -175 24 -114 28 -158 29 -287 0 -166
-21 -280 -75 -412 -118 -282 -376 -525 -647 -607 -26 -8 -50 -19 -53 -24 -3
-6 -14 -10 -24 -10 -23 0 -193 -88 -273 -141 -181 -120 -365 -314 -442 -466
-9 -18 -23 -33 -30 -33 -24 0 -25 41 -5 159 11 64 24 150 29 191 12 86 44 230
71 313 11 31 19 64 19 72 0 8 7 29 15 47 8 18 31 75 50 126 20 51 40 101 44
110 5 9 22 44 37 77 25 54 96 181 149 268 128 212 377 486 589 651 103 79 147
124 224 227 34 46 117 158 185 247 67 90 131 177 142 192 11 16 74 99 140 187
l120 158 3 78 c6 115 -4 122 -123 78 -27 -10 -90 -31 -140 -46 -139 -42 -145
-45 -220 -115 -95 -89 -167 -141 -272 -196 -120 -64 -182 -84 -419 -139 -33
-8 -125 -37 -205 -64 -222 -76 -212 -71 -388 -154 -41 -19 -83 -32 -93 -29
-20 5 -25 42 -5 42 7 0 25 27 40 60 74 160 228 338 383 441 186 125 449 207
684 215 122 5 226 26 325 69 17 7 46 16 65 20 19 4 80 23 135 42 55 19 123 40
150 47 95 25 121 44 149 106 14 32 26 60 26 62 0 3 23 45 50 94 58 101 61 107
113 187 20 32 37 63 37 68 0 5 23 9 50 9 38 0 50 -4 50 -15z m1578 -2366 c251
-131 458 -293 632 -496 140 -162 262 -349 329 -503 13 -30 32 -73 42 -95 24
-53 58 -150 70 -200 5 -22 19 -68 29 -103 19 -61 18 -92 -3 -92 -5 0 -53 42
-106 93 -124 120 -312 270 -478 380 -72 48 -133 87 -136 87 -2 0 -31 16 -63
36 -75 45 -326 167 -379 184 -22 7 -45 16 -50 21 -6 4 -55 23 -110 41 -106 36
-125 44 -125 58 0 4 16 31 35 59 100 150 164 336 165 479 0 64 11 112 25 112
3 0 58 -28 123 -61z m-2042 -207 c27 -47 77 -125 163 -257 98 -151 230 -281
346 -343 64 -33 182 -82 200 -82 8 0 20 -9 28 -21 13 -18 12 -30 -4 -104 -36
-160 -90 -266 -297 -578 -120 -181 -272 -301 -439 -346 -24 -7 -43 -16 -43
-21 0 -6 -68 -10 -170 -10 -93 0 -170 4 -170 9 0 4 -21 14 -47 21 -119 33
-224 98 -328 204 -150 154 -225 356 -212 574 6 98 15 112 96 143 31 11 60 24
66 28 5 5 23 11 39 15 37 9 173 87 258 148 82 59 219 204 282 297 57 83 110
190 142 283 25 74 41 101 54 93 5 -3 21 -26 36 -53z"/>
<path d="M3575 2591 c-27 -10 -62 -23 -76 -29 -15 -6 -57 -39 -93 -73 -70 -65
-116 -143 -135 -231 -17 -74 -12 -79 82 -76 l81 3 8 38 c22 106 93 177 212
211 l41 12 3 68 c2 41 -2 73 -9 82 -15 19 -54 17 -114 -5z"/>
<path d="M1532 1378 c-13 -13 -16 -126 -4 -144 4 -6 23 -15 42 -19 101 -21
191 -116 215 -227 5 -28 6 -28 85 -28 97 0 103 9 69 112 -46 144 -137 241
-275 293 -73 27 -114 31 -132 13z"/>
</g>
</svg>
