<?xml version="1.0" standalone="no"?>
<!DOCTYPE svg PUBLIC "-//W3C//DTD SVG 20010904//EN"
 "http://www.w3.org/TR/2001/REC-SVG-20010904/DTD/svg10.dtd">
<svg version="1.0" xmlns="http://www.w3.org/2000/svg"
 width="448.020706pt" height="447.988997pt" viewBox="0 0 448.020706 447.988997"
 preserveAspectRatio="xMidYMid meet">
<metadata>
Created by potrace 1.12, written by Peter Selinger 2001-2015
</metadata>
<g transform="translate(-32.004820,479.996127) scale(0.100000,-0.100000)"
fill="#000000" stroke="none">
<path d="M1635 4786 c-41 -18 -83 -69 -89 -109 -3 -18 -7 -93 -10 -167 -5
-158 -26 -254 -85 -377 -102 -213 -251 -362 -464 -464 -128 -61 -218 -81 -392
-86 -82 -2 -162 -9 -178 -15 -38 -15 -85 -71 -93 -113 -13 -71 1 -100 97 -198
140 -142 224 -284 271 -455 31 -112 31 -372 0 -484 -47 -171 -131 -312 -271
-455 -96 -97 -110 -127 -97 -198 8 -43 50 -94 93 -111 21 -9 73 -14 145 -14
142 0 217 -12 340 -54 177 -60 363 -202 467 -355 115 -170 160 -314 170 -548
5 -141 9 -165 27 -189 32 -44 68 -66 116 -71 61 -7 106 18 193 108 88 90 169
148 279 200 147 68 216 83 406 83 190 0 259 -15 406 -83 111 -52 189 -109 295
-214 93 -91 123 -106 194 -93 37 7 88 45 107 80 7 12 15 89 19 181 5 115 13
182 29 240 12 43 23 82 26 86 2 5 55 -19 117 -51 259 -135 546 -211 814 -214
119 -1 134 1 160 20 97 71 98 195 2 266 -14 10 -56 23 -93 29 -91 12 -154 48
-230 130 -146 158 -272 453 -340 794 -49 248 -60 368 -60 675 0 307 11 427 60
675 68 341 194 636 340 794 76 82 139 118 230 130 71 10 103 28 138 75 29 39
29 133 0 172 -54 73 -109 84 -310 65 -249 -25 -458 -85 -682 -197 -78 -39
-144 -69 -146 -65 -3 4 -14 43 -26 86 -16 58 -24 125 -29 240 -4 92 -12 169
-19 181 -19 35 -70 73 -107 80 -72 13 -101 -1 -199 -97 -140 -139 -282 -224
-454 -271 -112 -31 -372 -31 -485 0 -171 47 -318 134 -447 266 -41 42 -89 83
-107 91 -38 18 -88 19 -128 1z m390 -591 c382 -175 861 -147 1198 69 l57 36 6
-28 c15 -66 38 -142 62 -200 l25 -64 -80 -80 -81 -80 -100 41 c-411 168 -860
143 -1247 -70 -225 -124 -428 -324 -556 -546 -200 -350 -242 -782 -114 -1170
41 -124 129 -291 215 -405 350 -466 938 -675 1504 -532 54 13 143 43 198 65
l100 41 81 -80 80 -80 -25 -64 c-24 -58 -47 -134 -62 -200 l-6 -28 -57 36
c-380 244 -946 244 -1325 1 l-55 -35 -27 97 c-125 444 -453 772 -897 897 l-97
27 35 55 c242 378 242 946 0 1325 l-36 55 52 13 c290 68 550 238 730 478 108
144 187 309 226 478 l13 52 55 -36 c31 -19 88 -50 128 -68z m1934 -257 c-131
-261 -215 -577 -260 -978 -17 -150 -18 -648 -1 -800 42 -375 123 -686 247
-948 62 -129 62 -128 -55 -64 -439 240 -737 656 -826 1153 -23 127 -23 390 0
519 71 402 274 743 596 999 109 87 296 200 333 201 4 0 -11 -37 -34 -82z
m-1172 -282 c65 -14 211 -60 220 -70 2 -2 -21 -48 -52 -103 -110 -197 -190
-440 -221 -676 -20 -151 -14 -435 11 -577 36 -201 117 -427 210 -594 31 -54
54 -100 52 -102 -2 -2 -36 -15 -76 -29 -535 -187 -1119 52 -1375 562 -210 419
-126 938 204 1273 169 172 389 287 620 325 104 18 306 13 407 -9z"/>
</g>
</svg>
