<?xml version="1.0" standalone="no"?>
<!DOCTYPE svg PUBLIC "-//W3C//DTD SVG 20010904//EN"
 "http://www.w3.org/TR/2001/REC-SVG-20010904/DTD/svg10.dtd">
<svg version="1.0" xmlns="http://www.w3.org/2000/svg"
 width="511.943401pt" height="511.654498pt" viewBox="0 0 511.943401 511.654498"
 preserveAspectRatio="xMidYMid meet">
<metadata>
Created by potrace 1.12, written by Peter Selinger 2001-2015
</metadata>
<g transform="translate(-0.056599,511.654498) scale(0.100000,-0.100000)"
fill="#000000" stroke="none">
<path d="M3520 5114 c-1169 -84 -2205 -695 -2819 -1662 -299 -471 -476 -964
-547 -1527 -35 -270 -22 -813 22 -961 15 -50 15 -52 -25 -185 -49 -163 -124
-466 -142 -572 -13 -76 -12 -80 10 -122 17 -31 36 -50 65 -65 53 -25 79 -25
131 0 51 24 78 71 94 160 37 197 184 719 205 725 6 2 99 31 206 65 866 275
1698 774 2412 1447 158 149 318 315 336 350 19 35 14 104 -9 142 -12 19 -48
70 -80 112 -32 43 -59 79 -59 81 0 2 64 -4 143 -14 186 -23 234 -23 274 1 59
36 333 425 493 701 95 163 233 440 305 610 84 200 165 435 165 479 0 42 -29
93 -70 122 -30 22 -273 72 -460 94 -129 15 -534 27 -650 19z m564 -312 c38 -7
36 -8 -60 -31 -258 -62 -595 -187 -872 -324 -1106 -544 -2080 -1567 -2664
-2797 l-60 -125 7 145 c17 407 116 815 290 1200 271 600 732 1118 1300 1462
421 256 915 421 1390 468 61 5 128 12 150 14 59 6 474 -4 519 -12z m166 -304
c0 -19 -191 -404 -260 -523 -159 -277 -380 -595 -413 -595 -11 0 -153 16 -315
36 -327 39 -338 39 -390 -21 -37 -42 -49 -100 -29 -146 8 -19 74 -113 147
-209 73 -96 135 -181 138 -188 6 -16 -131 -156 -308 -316 -544 -489 -1141
-868 -1785 -1133 -141 -58 -378 -143 -384 -138 -7 8 76 189 185 405 709 1405
1929 2467 3209 2796 183 47 205 50 205 32z"/>
<path d="M676 276 c-100 -60 -99 -197 2 -254 l40 -22 1506 0 c1490 0 1507 0
1546 20 45 23 80 80 80 130 0 50 -35 107 -80 130 -39 20 -56 20 -1547 20
l-1508 0 -39 -24z"/>
<path d="M4228 279 c-43 -22 -78 -81 -78 -129 0 -50 35 -107 80 -130 37 -19
58 -20 405 -20 347 0 368 1 405 20 45 23 80 80 80 130 0 50 -35 107 -80 130
-37 19 -58 20 -407 20 -347 -1 -370 -2 -405 -21z"/>
</g>
</svg>
