<?xml version="1.0" standalone="no"?>
<!DOCTYPE svg PUBLIC "-//W3C//DTD SVG 20010904//EN"
 "http://www.w3.org/TR/2001/REC-SVG-20010904/DTD/svg10.dtd">
<svg version="1.0" xmlns="http://www.w3.org/2000/svg"
 width="339.401860pt" height="511.186107pt" viewBox="0 0 339.401860 511.186107"
 preserveAspectRatio="xMidYMid meet">
<metadata>
Created by potrace 1.12, written by Peter Selinger 2001-2015
</metadata>
<g transform="translate(-86.098140,511.686107) scale(0.100000,-0.100000)"
fill="#000000" stroke="none">
<path d="M992 5109 c-47 -14 -109 -79 -122 -130 -7 -26 -10 -98 -8 -184 3
-134 4 -144 30 -182 31 -47 77 -78 129 -88 l36 -7 6 -226 c6 -247 20 -343 77
-514 37 -112 124 -283 196 -389 191 -281 506 -560 856 -758 90 -51 90 -92 0
-142 -91 -51 -304 -193 -339 -227 -45 -41 -47 -100 -4 -143 40 -39 84 -39 142
2 86 60 235 156 309 200 81 48 133 106 150 167 l10 38 100 0 100 0 10 -38 c20
-71 67 -117 209 -203 482 -291 793 -641 919 -1035 44 -137 62 -278 62 -479 l0
-171 -125 0 -125 0 -72 73 c-183 185 -439 321 -718 382 -119 26 -347 31 -471
11 -280 -46 -552 -186 -761 -391 l-76 -75 -127 0 -128 0 6 223 c4 147 11 246
22 292 27 119 74 251 131 360 63 122 67 154 25 196 -39 39 -96 40 -135 4 -32
-30 -134 -237 -170 -345 -53 -159 -67 -260 -73 -502 l-6 -226 -36 -7 c-50 -9
-104 -46 -132 -92 -23 -36 -24 -47 -24 -203 0 -156 1 -167 24 -203 13 -21 42
-50 64 -65 l41 -27 1566 0 1566 0 41 27 c22 15 51 44 64 65 23 36 24 47 24
203 0 156 -1 167 -24 203 -28 46 -82 83 -132 92 l-36 7 -6 226 c-4 179 -10
248 -27 327 -57 267 -178 510 -365 735 -172 207 -472 451 -731 596 -98 55 -98
93 0 148 35 20 110 66 167 104 517 342 827 753 929 1227 17 79 23 148 27 327
l6 226 36 7 c52 10 98 41 129 88 27 40 27 43 27 207 0 164 0 167 -27 207 -15
22 -44 51 -65 64 l-38 24 -1550 2 c-960 1 -1563 -2 -1583 -8z m3068 -289 l0
-100 -1500 0 -1500 0 0 100 0 100 1500 0 1500 0 0 -100z m-200 -471 c0 -193
-18 -339 -57 -463 -29 -94 -63 -176 -72 -176 -3 0 -51 9 -106 19 -233 45 -531
51 -775 15 -58 -8 -197 -37 -310 -64 -276 -67 -386 -82 -610 -82 -183 -1 -275
7 -438 39 l-83 16 -29 65 c-85 187 -120 370 -120 631 l0 171 1300 0 1300 0 0
-171z m-340 -805 c58 -8 107 -17 109 -19 11 -12 -130 -186 -239 -295 -179
-180 -435 -367 -625 -456 -139 -66 -275 -65 -414 1 -95 46 -270 158 -394 252
-104 80 -307 274 -367 352 l-34 44 44 -7 c116 -19 331 -26 474 -16 183 13 325
37 530 89 138 35 284 61 421 75 82 8 394 -4 495 -20z m-776 -2679 c201 -35
405 -125 556 -245 25 -20 25 -20 -735 -19 l-760 0 35 30 c76 66 240 154 358
193 163 54 377 70 546 41z m1316 -565 l0 -100 -1500 0 -1500 0 0 100 0 100
1500 0 1500 0 0 -100z"/>
<path d="M2511 2186 c-38 -21 -50 -54 -51 -139 0 -77 1 -80 34 -113 25 -24 43
-34 66 -34 23 0 42 10 66 34 33 33 34 37 34 110 0 87 -13 122 -51 142 -34 17
-67 17 -98 0z"/>
<path d="M1549 1991 c-49 -49 -35 -126 28 -156 80 -38 161 34 133 119 -23 70
-108 89 -161 37z"/>
<path d="M2507 1629 c-32 -19 -47 -65 -47 -143 0 -69 2 -78 29 -108 24 -27 36
-33 71 -33 35 0 47 6 71 33 27 30 29 39 29 108 0 80 -16 126 -49 144 -25 13
-81 12 -104 -1z"/>
</g>
</svg>
