<svg id="Слой_1" data-name="Слой 1" xmlns="http://www.w3.org/2000/svg" viewBox="0 0 402.84 69.8"><defs><style>.cls-1{fill:#1d1d1b;}</style></defs><path class="cls-1" d="M124.49,315.25v15.2q0,3.63,2.35,4.95t8.92,1.62v4.41H96.25V337q4.6-.5,5.69-1.62t1.08-4.95V283.59q0-3.82-1.08-4.95T96.25,277v-4.41h35.69q14,0,21.22,5.68a18.38,18.38,0,0,1,7.21,15.2q0,10.59-7.35,16.18t-22.16,5.58Zm0-37.74v32.16h1.27q6.57,0,10.15-4.32t3.58-11.86q0-7.55-3.78-11.76a12.7,12.7,0,0,0-10-4.22Z" transform="translate(-96.25 -272.61)"/><path class="cls-1" d="M210.76,304.67v26q0,4,2.45,4a8.61,8.61,0,0,0,3-.49l.69,2.94a19.53,19.53,0,0,1-13.63,5.29q-9.31,0-12.06-8.14-5,7.75-14.51,7.75-6.47,0-10.44-3.48t-4-9.85q0-5.9,3.38-9.17a24.86,24.86,0,0,1,9.37-5.34L191,308.69V297.9q0-6.57-4.22-6.57-4.71,0-4.7,7.55a31.54,31.54,0,0,0,1,7.26l-12.16,1.57q-5.1-1.66-5.1-7.16a10.75,10.75,0,0,1,6-10q6-3.33,15.83-3.33,11.38,0,17.26,4T210.76,304.67Zm-22.65,27.15a10.24,10.24,0,0,0,2.85-.49V313.2L187,314.67a8.17,8.17,0,0,0-4,2.74q-1.28,1.77-1.28,5.79Q181.74,331.83,188.11,331.82Z" transform="translate(-96.25 -272.61)"/><path class="cls-1" d="M257.62,333.78V305.06a6.83,6.83,0,0,0-1.32-4.51c-.88-1.05-2.47-1.57-4.75-1.57a22,22,0,0,0-7.26,1.27v33.53c0,1.38.33,2.28,1,2.7a9.1,9.1,0,0,0,3.92.83v4.12H218.9v-4.12c1.37-.13,2.38-.26,3-.39a2.62,2.62,0,0,0,1.57-.93,3.49,3.49,0,0,0,.58-2.21V299.47l-5.19-3.33v-3l21.86-5.88h3.92l-.39,9.9q7.54-9.9,18.33-9.9,7.26,0,11.23,4.06t4,12v30.49a3.49,3.49,0,0,0,.59,2.21,2.56,2.56,0,0,0,1.57.93c.65.13,1.66.26,3,.39v4.12h-30.3v-4.12a9.1,9.1,0,0,0,3.92-.83C257.3,336.06,257.62,335.16,257.62,333.78Z" transform="translate(-96.25 -272.61)"/><path class="cls-1" d="M333.51,304.67v26c0,2.68.81,4,2.45,4a8.65,8.65,0,0,0,3-.49l.68,2.94a19.51,19.51,0,0,1-13.63,5.29q-9.3,0-12.05-8.14Q309,342,299.49,342q-6.48,0-10.44-3.48t-4-9.85q0-5.9,3.39-9.17a24.74,24.74,0,0,1,9.36-5.34l15.88-5.49V297.9q0-6.57-4.21-6.57-4.71,0-4.71,7.55a32.1,32.1,0,0,0,1,7.26l-12.16,1.57q-5.09-1.66-5.09-7.16a10.75,10.75,0,0,1,6-10q6-3.33,15.83-3.33,11.37,0,17.26,4T333.51,304.67Zm-22.65,27.15a10.24,10.24,0,0,0,2.84-.49V313.2l-3.92,1.47a8.17,8.17,0,0,0-4,2.74q-1.27,1.77-1.27,5.79Q304.49,331.83,310.86,331.82Z" transform="translate(-96.25 -272.61)"/><path class="cls-1" d="M358.9,309.08q0,9.32,4,14.61T374.09,329q8.43,0,12.75-6.08l2.35,1.47q-4.6,18-22.94,18a24,24,0,0,1-17.74-7.06q-7.06-7.05-7.06-18.92,0-12.74,7.64-21t20-8.23q8.15,0,13.39,3.18a10.57,10.57,0,0,1,5.24,9.66q0,5.49-4.61,7.45H373a47.77,47.77,0,0,0,.39-5.88q0-9.7-5.88-9.71c-2.69,0-4.79,1.6-6.33,4.81S358.9,304.05,358.9,309.08Z" transform="translate(-96.25 -272.61)"/><path class="cls-1" d="M419.29,287.22q10.68,0,16.42,6t5.74,16v2.45H410.37q0,8,4.07,12.84a13.28,13.28,0,0,0,10.64,4.8q9.3,0,14.6-6.86l2.06,1.28q-2.16,8.82-8,13.77t-15.29,5q-11.37,0-18.83-7t-7.45-19.46q0-12.94,7.95-20.83A26.24,26.24,0,0,1,419.29,287.22ZM418,291.53q-6.87,0-7.55,15.29h13.82Q424.29,291.53,418,291.53Z" transform="translate(-96.25 -272.61)"/><path class="cls-1" d="M492.92,304.67v26c0,2.68.81,4,2.45,4a8.65,8.65,0,0,0,3-.49l.68,2.94a19.5,19.5,0,0,1-13.62,5.29q-9.32,0-12.06-8.14-5,7.75-14.51,7.75-6.48,0-10.44-3.48t-4-9.85q0-5.9,3.38-9.17a24.74,24.74,0,0,1,9.36-5.34l15.88-5.49V297.9q0-6.57-4.21-6.57-4.71,0-4.71,7.55a32.1,32.1,0,0,0,1,7.26L453,307.71q-5.08-1.66-5.09-7.16a10.75,10.75,0,0,1,6-10q6-3.33,15.83-3.33,11.37,0,17.26,4T492.92,304.67Zm-22.65,27.15a10.24,10.24,0,0,0,2.84-.49V313.2l-3.92,1.47a8.17,8.17,0,0,0-4,2.74q-1.28,1.77-1.27,5.79Q463.9,331.83,470.27,331.82Z" transform="translate(-96.25 -272.61)"/></svg>