<?xml version="1.0" standalone="no"?>
<!DOCTYPE svg PUBLIC "-//W3C//DTD SVG 20010904//EN"
 "http://www.w3.org/TR/2001/REC-SVG-20010904/DTD/svg10.dtd">
<svg version="1.0" xmlns="http://www.w3.org/2000/svg"
 width="470.504964pt" height="512.000000pt" viewBox="0 0 470.504964 512.000000"
 preserveAspectRatio="xMidYMid meet">
<metadata>
Created by potrace 1.12, written by Peter Selinger 2001-2015
</metadata>
<g transform="translate(-20.995036,512.000000) scale(0.100000,-0.100000)"
fill="#000000" stroke="none">
<path d="M552 5113 c-21 -8 -42 -59 -42 -102 l0 -39 -131 -4 c-177 -4 -169 6
-169 -223 0 -95 3 -181 6 -190 13 -33 59 -45 179 -45 l115 0 0 -40 c0 -51 16
-85 47 -99 13 -6 80 -11 153 -11 l130 0 0 -225 c0 -255 -9 -227 93 -309 26
-21 47 -41 47 -45 0 -3 -31 -41 -70 -84 l-70 -78 0 -803 0 -803 23 -21 c31
-29 72 -28 102 3 l25 24 0 770 0 770 90 100 c125 140 125 142 -30 268 l-60 48
0 243 0 242 1575 0 1575 0 0 -465 c0 -452 1 -466 20 -485 30 -30 83 -27 109 6
20 26 21 37 21 435 l0 409 135 0 c131 0 137 1 160 25 20 19 25 34 25 75 l0 50
124 0 c118 0 127 1 153 24 l28 24 0 182 0 182 -28 24 c-26 23 -35 24 -153 24
l-124 0 0 50 c0 41 -5 56 -25 75 -24 25 -26 25 -208 25 -171 0 -186 -1 -211
-21 -17 -14 -26 -30 -26 -50 l0 -29 -1575 0 -1575 0 0 25 c0 14 -11 37 -25 50
-24 25 -25 25 -212 24 -103 0 -194 -3 -201 -6z m288 -373 l0 -230 -85 0 -85 0
0 230 0 230 85 0 85 0 0 -230z m3620 0 l0 -230 -85 0 -85 0 0 230 0 230 85 0
85 0 0 -230z m-325 0 l0 -125 -1572 -3 -1573 -2 0 130 0 130 1573 -2 1572 -3
0 -125z m-3625 0 l0 -81 -72 3 -73 3 -3 78 -3 77 76 0 75 0 0 -80z m4250 0 l0
-81 -72 3 -73 3 -3 78 -3 77 76 0 75 0 0 -80z"/>
<path d="M1873 4178 c-46 -22 -49 -103 -4 -127 13 -8 226 -11 655 -11 l635 0
20 26 c28 35 26 69 -4 99 l-24 25 -628 -1 c-421 0 -635 -4 -650 -11z"/>
<path d="M1600 3740 c-30 -30 -27 -83 6 -109 27 -21 31 -21 951 -21 791 0 928
2 952 15 46 23 54 66 20 109 l-20 26 -945 0 c-931 0 -944 0 -964 -20z"/>
<path d="M1385 3271 c-48 -29 -173 -165 -181 -195 -10 -41 22 -80 70 -84 32
-3 43 3 96 54 l61 58 57 -57 c48 -48 63 -57 93 -57 40 0 64 20 74 63 7 26 -1
37 -97 133 -61 61 -112 104 -124 104 -10 0 -32 -8 -49 -19z"/>
<path d="M2353 3266 c-27 -24 -28 -27 -28 -130 0 -145 6 -151 151 -151 103 0
106 1 130 28 27 31 29 45 13 80 -14 31 -48 47 -99 47 -40 0 -40 0 -40 40 0 51
-16 85 -47 99 -35 16 -49 14 -80 -13z"/>
<path d="M2725 3265 c-32 -31 -33 -74 -2 -103 18 -17 36 -22 75 -22 l52 0 0
-49 c0 -64 28 -101 76 -101 62 0 74 24 74 149 0 106 -1 110 -26 130 -23 18
-41 21 -126 21 -92 0 -101 -2 -123 -25z"/>
<path d="M3268 3193 c-88 -88 -101 -105 -100 -133 1 -44 27 -70 71 -70 30 0
45 9 93 57 l57 57 60 -57 c82 -78 107 -78 191 0 l61 56 57 -56 c46 -46 64 -57
90 -57 41 0 72 30 72 72 0 27 -15 47 -98 130 -121 121 -128 123 -216 38 l-62
-59 -54 54 c-35 35 -67 57 -88 61 -31 6 -38 1 -134 -93z"/>
<path d="M4160 3260 c-19 -19 -20 -33 -20 -537 l0 -518 -86 -95 c-47 -52 -89
-105 -94 -117 -14 -34 0 -60 79 -152 39 -45 71 -86 71 -90 0 -4 -56 -88 -125
-187 -69 -98 -128 -190 -132 -202 -7 -29 24 -74 58 -83 13 -4 70 -7 127 -8
l102 -1 0 -305 0 -305 -1575 0 -1575 0 0 524 0 525 -23 27 c-30 34 -83 36
-109 3 -17 -20 -18 -58 -18 -500 l0 -479 -130 0 c-73 0 -140 -5 -153 -11 -31
-14 -47 -48 -47 -99 l0 -40 -115 0 c-120 0 -166 -12 -179 -45 -3 -9 -6 -95 -6
-190 0 -229 -8 -219 169 -223 l131 -4 0 -39 c0 -45 21 -94 45 -103 9 -3 100
-6 201 -6 183 0 185 0 209 25 14 13 25 36 25 50 l0 25 1239 0 c1238 0 1238 0
1265 21 33 26 36 79 6 109 -20 20 -33 20 -1265 20 l-1245 0 0 130 0 130 1573
-2 1572 -3 0 -125 0 -125 -188 -5 c-172 -5 -190 -7 -203 -24 -23 -33 -18 -82
12 -105 25 -19 40 -21 205 -21 l179 0 0 -29 c0 -20 9 -36 26 -50 25 -20 40
-21 211 -21 182 0 184 0 208 25 20 19 25 34 25 75 l0 50 124 0 c118 0 127 1
153 24 l28 24 0 182 0 182 -28 24 c-26 23 -35 24 -153 24 l-124 0 0 50 c0 41
-5 56 -25 75 -23 24 -29 25 -160 25 l-135 0 0 304 0 305 -24 28 c-22 25 -32
28 -105 33 l-81 5 102 145 c77 110 102 153 102 177 0 25 -16 50 -76 120 l-77
90 69 76 c38 42 74 86 80 96 6 13 10 203 10 554 0 525 0 535 -21 561 -26 33
-79 36 -109 6z m-3320 -2880 l0 -230 -85 0 -85 0 0 230 0 230 85 0 85 0 0
-230z m3620 0 l0 -230 -85 0 -85 0 0 230 0 230 85 0 85 0 0 -230z m-3950 0 l0
-80 -75 0 -75 0 0 73 c0 41 3 77 7 80 3 4 37 7 75 7 l68 0 0 -80z m4250 0 l0
-80 -75 0 -75 0 0 73 c0 41 3 77 7 80 3 4 37 7 75 7 l68 0 0 -80z"/>
<path d="M1810 3127 c-30 -15 -45 -54 -36 -91 11 -44 55 -56 211 -56 156 0
200 12 211 56 9 37 -6 76 -36 91 -17 9 -74 13 -175 13 -101 0 -158 -4 -175
-13z"/>
<path d="M1485 2624 c-181 -23 -302 -98 -321 -201 -9 -47 19 -115 62 -152 157
-138 504 -132 641 11 97 101 59 221 -92 296 -67 33 -212 56 -290 46z m227
-183 c25 -12 49 -29 52 -37 7 -17 -41 -49 -99 -66 -52 -15 -198 -15 -250 0
-57 17 -106 49 -99 65 4 12 61 42 114 61 8 3 65 4 125 3 90 -3 118 -7 157 -26z"/>
<path d="M2118 2452 c-106 -107 -115 -127 -77 -176 15 -19 30 -26 55 -26 29 0
46 10 95 57 l59 56 59 -56 c81 -78 105 -77 183 0 l57 57 60 -57 c49 -47 66
-57 95 -57 25 0 40 7 55 26 38 49 29 69 -77 176 -121 121 -128 122 -215 39
l-62 -59 -63 59 c-91 86 -101 84 -224 -39z"/>
<path d="M3148 2536 c-22 -17 -38 -59 -38 -102 0 -33 -1 -34 -40 -34 -51 0
-85 -16 -99 -47 -16 -34 -14 -47 10 -77 20 -25 24 -26 129 -26 143 0 153 7
158 114 5 96 -3 141 -30 166 -25 23 -65 26 -90 6z"/>
<path d="M3416 2379 c-33 -26 -36 -79 -6 -109 18 -18 33 -20 195 -20 162 0
177 2 195 20 28 28 26 75 -5 105 -24 25 -27 25 -188 25 -151 0 -166 -2 -191
-21z"/>
<path d="M1365 1820 c-29 -12 -205 -195 -205 -213 0 -50 51 -94 94 -81 11 3
47 31 79 62 l57 56 58 -56 c70 -69 98 -79 137 -45 20 17 28 33 28 56 0 28 -14
46 -94 126 -96 95 -119 110 -154 95z"/>
<path d="M2330 1817 c-41 -21 -51 -53 -48 -155 3 -89 5 -95 31 -118 25 -21 37
-24 117 -24 99 0 132 10 149 47 16 34 14 47 -10 77 -17 22 -28 26 -73 26 l-54
0 -4 56 c-7 79 -53 118 -108 91z"/>
<path d="M2700 1818 c-30 -16 -45 -55 -36 -92 8 -32 56 -56 111 -56 35 0 35 0
35 -44 0 -24 3 -52 6 -61 10 -24 60 -46 89 -39 45 11 55 39 55 150 0 142 -5
148 -137 152 -66 2 -106 -2 -123 -10z"/>
<path d="M3325 1820 c-11 -4 -60 -49 -109 -99 -75 -75 -89 -95 -89 -122 0 -36
40 -79 74 -79 12 0 49 28 85 62 l65 62 57 -56 c31 -31 67 -59 79 -62 29 -9 68
13 123 68 l44 46 51 -49 c27 -27 60 -54 72 -60 48 -24 103 14 103 72 0 23 -18
48 -82 114 -91 93 -128 118 -161 107 -12 -4 -47 -32 -79 -62 l-58 -55 -64 61
c-65 63 -75 67 -111 52z"/>
<path d="M1750 1650 c-25 -25 -26 -71 -1 -101 19 -24 22 -24 196 -24 174 0
177 0 196 24 25 30 24 76 -1 101 -18 18 -33 20 -195 20 -162 0 -177 -2 -195
-20z"/>
<path d="M1707 1008 c-38 -30 -38 -95 1 -124 24 -19 400 -19 424 0 41 31 37
113 -7 130 -33 12 -400 7 -418 -6z"/>
<path d="M2342 997 c-31 -33 -29 -80 4 -106 25 -20 40 -21 219 -21 215 0 229
4 241 67 5 26 1 37 -19 57 l-26 26 -199 0 c-195 0 -199 0 -220 -23z"/>
<path d="M2981 994 c-28 -35 -26 -69 4 -99 24 -25 25 -25 220 -25 195 0 196 0
220 25 30 30 32 64 4 99 l-20 26 -204 0 -204 0 -20 -26z"/>
</g>
</svg>
