<?xml version="1.0" standalone="no"?>
<!DOCTYPE svg PUBLIC "-//W3C//DTD SVG 20010904//EN"
 "http://www.w3.org/TR/2001/REC-SVG-20010904/DTD/svg10.dtd">
<svg version="1.0" xmlns="http://www.w3.org/2000/svg"
 width="291.004983pt" height="511.889130pt" viewBox="0 0 291.004983 511.889130"
 preserveAspectRatio="xMidYMid meet">
<metadata>
Created by potrace 1.12, written by Peter Selinger 2001-2015
</metadata>
<g transform="translate(-110.424684,511.908555) scale(0.100000,-0.100000)"
fill="#000000" stroke="none">
<path d="M2405 5106 c-66 -16 -131 -46 -194 -89 l-52 -35 -47 15 c-27 8 -88
15 -142 15 -156 0 -266 -47 -386 -166 -74 -74 -111 -133 -138 -226 -23 -76
-30 -202 -18 -285 8 -46 8 -84 2 -110 -16 -64 -12 -262 5 -329 35 -134 129
-251 241 -303 31 -14 94 -33 140 -42 l83 -16 47 -188 c39 -157 44 -190 33
-203 -7 -8 -85 -68 -173 -132 -467 -337 -617 -464 -665 -564 -51 -106 -49
-262 6 -508 27 -125 124 -432 154 -493 47 -92 173 -133 321 -104 112 22 231
82 291 146 69 74 72 66 71 -213 0 -206 -3 -240 -22 -311 -28 -99 -76 -202
-145 -308 -133 -205 -247 -427 -247 -482 0 -31 25 -93 48 -118 9 -11 34 -28
54 -38 36 -18 77 -19 1095 -19 1008 0 1060 1 1099 19 49 22 80 60 95 114 14
52 -18 209 -73 362 -80 219 -90 261 -95 395 -5 119 -2 144 65 555 178 1085
196 1371 94 1558 -33 62 -91 114 -139 125 -21 5 -117 21 -213 36 -96 15 -299
52 -450 83 -151 31 -287 58 -302 60 -35 6 -41 14 -68 91 l-23 62 48 48 c62 61
109 160 134 286 11 54 21 99 23 100 2 1 24 14 50 29 91 53 171 171 197 295 26
122 7 282 -45 384 -36 71 -133 169 -205 208 -45 24 -67 44 -94 85 -117 183
-276 256 -460 211z m204 -160 c48 -25 104 -86 146 -157 42 -73 49 -79 131
-118 82 -40 138 -104 164 -189 26 -83 26 -190 1 -271 -18 -58 -63 -131 -80
-131 -4 0 -11 35 -14 78 -11 139 -68 314 -120 370 -35 38 -105 68 -218 96 -57
14 -136 41 -175 61 -72 35 -73 36 -158 167 l-17 26 48 29 c109 64 216 78 292
39z m-529 -98 c29 -8 45 -25 92 -96 42 -63 54 -90 48 -102 -17 -32 -86 -96
-190 -176 -121 -93 -194 -169 -224 -234 -36 -78 -21 -244 49 -522 l7 -27 -49
13 c-126 34 -200 105 -232 223 -15 57 -15 190 0 258 10 44 10 75 -1 156 -24
180 18 320 123 415 109 99 241 131 377 92z m356 -324 c34 -12 99 -32 145 -44
145 -35 164 -54 204 -196 22 -78 31 -319 16 -410 -17 -98 -59 -220 -88 -254
-49 -59 -148 -60 -287 -4 -74 30 -91 30 -121 -1 -32 -31 -33 -75 -2 -102 32
-29 174 -81 247 -90 l62 -8 39 -99 c21 -55 46 -107 56 -117 11 -11 73 -29 158
-48 182 -39 528 -106 628 -122 65 -10 77 -15 72 -28 -39 -100 -43 -270 -10
-396 20 -74 65 -173 102 -222 33 -44 108 -93 140 -93 13 0 26 -6 29 -14 7 -19
-23 -234 -101 -721 -35 -220 -69 -452 -75 -515 -18 -190 4 -348 73 -527 55
-142 101 -321 90 -350 -8 -20 -2081 -20 -2089 1 -9 24 95 216 249 459 65 102
110 212 140 341 18 77 21 123 22 301 l0 210 100 1 c192 2 350 66 476 194 l77
77 84 -42 c47 -22 117 -49 155 -58 79 -19 233 -22 303 -6 67 15 170 57 215 88
33 22 41 34 43 63 6 74 -59 99 -139 53 -176 -101 -400 -86 -588 40 -112 75
-142 73 -186 -16 -85 -167 -285 -266 -481 -238 -84 12 -164 51 -214 106 -43
46 -42 41 -44 193 -2 79 -6 94 -56 215 -47 110 -59 131 -82 139 -38 13 -80 -3
-96 -37 -13 -26 -10 -37 29 -135 39 -95 43 -116 44 -189 l0 -83 -36 0 c-94 0
-218 -41 -307 -100 -31 -21 -60 -36 -64 -32 -10 11 -76 259 -94 357 -9 50 -17
133 -18 185 -1 87 2 99 26 142 47 80 172 181 617 503 200 145 251 191 251 230
0 15 -31 159 -70 320 -99 416 -150 645 -150 681 0 56 51 117 204 238 79 64
159 134 177 157 22 28 36 38 48 34 9 -4 44 -18 77 -31z m1339 -1546 c32 -15
72 -96 85 -173 6 -38 6 -108 0 -195 -5 -74 -10 -145 -10 -158 0 -20 -4 -22
-22 -17 -37 11 -64 43 -92 104 -70 156 -73 359 -8 434 18 20 15 20 47 5z
m-1951 -1304 c25 -10 19 -40 -15 -78 -66 -76 -250 -133 -334 -105 -22 8 -41
21 -43 30 -7 39 112 127 203 150 37 9 168 11 189 3z"/>
<path d="M3227 2122 c-24 -26 -22 -85 3 -107 47 -42 120 -8 120 56 0 60 -84
94 -123 51z"/>
<path d="M2106 1928 c-36 -51 -5 -121 52 -121 63 0 94 67 56 121 -21 31 -87
31 -108 0z"/>
<path d="M2763 655 c-26 -18 -38 -67 -23 -94 28 -54 89 -63 130 -19 61 66 -32
165 -107 113z"/>
</g>
</svg>
