<?xml version="1.0" standalone="no"?>
<!DOCTYPE svg PUBLIC "-//W3C//DTD SVG 20010904//EN"
 "http://www.w3.org/TR/2001/REC-SVG-20010904/DTD/svg10.dtd">
<svg version="1.0" xmlns="http://www.w3.org/2000/svg"
 width="426.000000pt" height="426.000000pt" viewBox="0 0 426.000000 426.000000"
 preserveAspectRatio="xMidYMid meet">
<metadata>
Created by potrace 1.12, written by Peter Selinger 2001-2015
</metadata>
<g transform="translate(-43.000000,469.000000) scale(0.100000,-0.100000)"
fill="#000000" stroke="none">
<path d="M2350 4370 l0 -320 210 0 210 0 0 320 0 320 -210 0 -210 0 0 -320z"/>
<path d="M1052 4067 l-152 -152 225 -225 225 -225 152 153 153 152 -225 225
-225 225 -153 -153z"/>
<path d="M3690 3995 l-225 -225 153 -152 152 -153 225 225 225 225 -153 153
-152 152 -225 -225z"/>
<path d="M2420 3834 c-200 -26 -408 -102 -565 -207 -83 -56 -108 -77 -203
-170 -172 -170 -294 -396 -348 -647 -26 -119 -26 -381 0 -500 110 -512 494
-896 1006 -1006 119 -26 381 -26 500 0 513 111 895 493 1006 1006 26 119 26
381 0 500 -111 513 -494 896 -1006 1006 -73 15 -320 27 -390 18z m310 -438
c167 -35 308 -112 431 -235 167 -168 249 -364 249 -601 0 -237 -82 -433 -249
-601 -179 -178 -378 -255 -636 -246 -113 3 -142 8 -225 36 -302 102 -511 336
-577 646 -23 110 -13 306 22 415 96 301 331 516 640 585 79 18 263 18 345 1z"/>
<path d="M430 2560 l0 -210 320 0 320 0 0 210 0 210 -320 0 -320 0 0 -210z"/>
<path d="M4050 2560 l0 -210 320 0 320 0 0 210 0 210 -320 0 -320 0 0 -210z"/>
<path d="M1122 1427 l-222 -222 153 -153 152 -152 225 225 225 225 -150 150
c-82 82 -152 150 -155 150 -3 0 -105 -100 -228 -223z"/>
<path d="M3615 1500 l-150 -150 225 -225 225 -225 152 152 153 153 -222 222
c-123 123 -225 223 -228 223 -3 0 -73 -68 -155 -150z"/>
<path d="M2350 750 l0 -320 210 0 210 0 0 320 0 320 -210 0 -210 0 0 -320z"/>
</g>
</svg>
