<?xml version="1.0" standalone="no"?>
<!DOCTYPE svg PUBLIC "-//W3C//DTD SVG 20010904//EN"
 "http://www.w3.org/TR/2001/REC-SVG-20010904/DTD/svg10.dtd">
<svg version="1.0" xmlns="http://www.w3.org/2000/svg"
 width="512.000000pt" height="512.000000pt" viewBox="0 0 512.000000 512.000000"
 preserveAspectRatio="xMidYMid meet">
<metadata>
Created by potrace 1.12, written by Peter Selinger 2001-2015
</metadata>
<g transform="translate(-0.000000,512.000000) scale(0.100000,-0.100000)"
fill="#000000" stroke="none">
<path d="M2501 5093 c-24 -23 -43 -70 -101 -248 -40 -121 -86 -246 -103 -278
-91 -174 -314 -242 -492 -150 -29 15 -137 102 -240 193 -102 91 -199 169 -215
174 -42 13 -89 -9 -106 -50 -13 -30 -10 -54 37 -281 42 -204 50 -261 46 -320
-11 -184 -156 -329 -341 -341 -58 -3 -117 6 -318 47 -274 56 -295 56 -324 -1
-29 -56 -15 -80 166 -283 93 -104 181 -213 195 -241 83 -164 31 -370 -121
-475 -27 -19 -133 -60 -286 -110 -264 -88 -298 -107 -298 -169 0 -62 34 -81
298 -169 153 -50 259 -91 286 -110 153 -106 205 -310 120 -476 -14 -27 -101
-135 -194 -240 -181 -203 -195 -227 -166 -283 29 -57 50 -57 324 -1 203 42
260 50 319 46 184 -11 329 -156 341 -341 3 -58 -6 -118 -47 -319 -47 -227 -50
-251 -37 -281 17 -41 64 -63 106 -50 16 5 113 83 215 174 103 91 211 178 240
193 181 94 408 21 498 -160 13 -26 57 -147 97 -268 78 -239 99 -275 160 -275
62 0 81 34 169 298 50 153 91 259 110 286 106 153 310 205 476 120 28 -14 109
-77 180 -141 287 -256 280 -251 344 -218 56 28 56 51 0 323 -41 201 -50 260
-47 318 12 185 157 330 341 341 59 4 116 -4 319 -46 274 -56 295 -56 324 1 29
56 15 80 -166 283 -103 115 -179 211 -195 243 -90 183 -18 405 162 495 26 13
147 57 268 97 239 78 275 99 275 160 0 61 -36 82 -275 160 -121 40 -246 86
-278 103 -174 91 -242 313 -151 492 14 28 101 136 194 240 181 203 195 227
166 283 -29 57 -50 57 -324 1 -199 -41 -261 -50 -318 -46 -184 11 -330 156
-341 340 -4 59 5 117 46 319 56 274 56 295 -1 324 -56 29 -80 15 -283 -166
-115 -103 -211 -179 -243 -195 -180 -89 -399 -21 -489 152 -17 32 -63 157
-103 278 -78 239 -99 275 -160 275 -19 0 -41 -10 -59 -27z m107 -453 c48 -145
94 -223 173 -294 107 -96 216 -139 359 -140 168 -1 268 44 440 197 46 42 86
74 87 73 2 -2 -8 -55 -22 -119 -55 -257 -16 -429 134 -578 149 -149 316 -188
575 -134 66 14 120 24 122 22 1 -1 -41 -51 -92 -111 -52 -60 -108 -136 -124
-170 -122 -247 -41 -540 191 -695 38 -25 106 -55 189 -83 72 -23 130 -45 130
-48 0 -3 -58 -25 -130 -48 -145 -48 -223 -94 -294 -173 -96 -107 -139 -216
-140 -359 -1 -168 44 -268 197 -440 42 -46 75 -86 73 -87 -1 -1 -55 9 -119 22
-258 55 -429 15 -578 -134 -149 -149 -188 -314 -134 -573 14 -67 24 -122 23
-123 -2 -2 -52 40 -112 91 -60 52 -136 108 -170 124 -248 122 -546 40 -697
-193 -23 -35 -56 -111 -81 -188 -23 -71 -45 -129 -48 -129 -3 0 -25 58 -48
130 -48 145 -94 223 -173 294 -107 96 -216 139 -359 140 -168 1 -268 -44 -440
-197 -46 -42 -86 -74 -87 -73 -2 2 8 55 22 119 41 191 31 315 -35 447 -43 85
-136 180 -218 223 -139 73 -253 84 -454 42 -67 -14 -122 -24 -124 -23 -1 2 32
41 73 88 153 174 198 273 197 440 -1 145 -47 260 -143 364 -71 76 -148 120
-292 168 -71 23 -129 45 -129 48 0 3 58 25 129 48 146 48 223 93 293 170 98
110 141 218 142 362 1 168 -44 268 -197 440 -42 46 -75 86 -73 87 2 2 57 -8
124 -22 201 -42 315 -31 454 42 82 43 175 138 218 223 66 131 75 247 35 442
-14 67 -24 122 -22 124 1 2 41 -31 87 -73 172 -153 272 -198 440 -197 158 1
294 63 401 183 58 65 94 135 140 279 18 56 36 102 39 102 3 0 25 -58 48 -130z"/>
<path d="M2349 3995 c-175 -28 -314 -75 -466 -154 -382 -202 -651 -560 -745
-994 -32 -147 -32 -427 0 -574 30 -137 73 -257 137 -381 202 -389 560 -659
998 -754 147 -32 427 -32 574 0 137 30 257 73 381 137 389 202 659 559 754
998 32 146 32 426 0 574 -124 574 -561 1013 -1130 1133 -129 28 -383 35 -503
15z m400 -171 c552 -81 994 -523 1075 -1075 60 -408 -69 -797 -363 -1090 -201
-202 -440 -323 -712 -363 -703 -104 -1351 380 -1455 1084 -57 393 78 802 358
1077 95 93 120 114 203 170 157 105 378 186 565 206 88 9 232 6 329 -9z"/>
</g>
</svg>
