<?xml version="1.0" standalone="no"?>
<!DOCTYPE svg PUBLIC "-//W3C//DTD SVG 20010904//EN"
 "http://www.w3.org/TR/2001/REC-SVG-20010904/DTD/svg10.dtd">
<svg version="1.0" xmlns="http://www.w3.org/2000/svg"
 width="493.482591pt" height="489.967012pt" viewBox="0 0 493.482591 489.967012"
 preserveAspectRatio="xMidYMid meet">
<metadata>
Created by potrace 1.12, written by Peter Selinger 2001-2015
</metadata>
<g transform="translate(-9.084489,500.967009) scale(0.100000,-0.100000)"
fill="#000000" stroke="none">
<path d="M4701 4996 c-6 -7 -20 -39 -30 -70 -28 -80 -67 -154 -108 -204 -32
-39 -62 -58 -145 -91 -23 -9 -28 -17 -28 -45 0 -47 25 -61 83 -46 81 21 162
90 223 189 l22 35 26 -57 c15 -31 47 -79 72 -106 l46 -51 -61 -56 c-33 -30
-70 -71 -82 -90 l-21 -35 -30 53 c-40 70 -57 88 -83 88 -22 0 -55 -28 -55 -46
0 -5 18 -45 40 -89 32 -63 43 -99 52 -170 6 -49 16 -96 21 -102 14 -19 65 -16
75 5 5 9 15 42 22 72 31 136 110 245 215 294 91 43 94 81 11 130 -48 28 -92
78 -124 142 -25 48 -52 150 -52 193 0 53 -60 92 -89 57z"/>
<path d="M2186 4894 c-9 -8 -16 -25 -16 -37 0 -36 -39 -165 -65 -218 -35 -68
-83 -119 -132 -141 -49 -22 -69 -49 -54 -76 6 -10 40 -36 77 -58 117 -68 193
-181 216 -319 9 -52 17 -70 35 -82 21 -14 25 -14 47 1 20 12 26 27 31 73 13
116 55 225 111 292 15 18 51 46 81 63 55 31 76 66 54 92 -7 8 -36 26 -65 40
-99 48 -184 167 -218 301 -6 28 -19 58 -27 68 -18 21 -54 22 -75 1z m175 -397
l49 -43 -45 -50 c-25 -27 -59 -75 -75 -107 l-29 -58 -17 28 c-34 53 -93 120
-128 144 l-34 23 44 49 c24 27 58 78 75 114 l31 65 40 -61 c21 -33 62 -80 89
-104z"/>
<path d="M890 4796 c-19 -8 -84 -40 -144 -72 -136 -73 -168 -109 -173 -192 -4
-54 0 -66 76 -225 l80 -169 -102 -48 c-131 -62 -167 -101 -167 -179 0 -29 100
-243 128 -275 56 -62 125 -62 256 -1 54 26 102 43 106 38 4 -4 46 -89 93 -188
l85 -179 -46 -27 c-58 -33 -85 -77 -92 -148 -5 -54 -5 -54 -51 -70 -26 -9 -54
-22 -63 -30 -23 -20 -20 -58 7 -76 22 -14 30 -13 112 15 49 17 93 36 97 43 5
6 6 38 2 70 -9 89 -2 96 173 151 81 26 158 54 171 62 28 18 29 55 2 79 -20 18
-23 18 -113 -12 l-92 -30 -115 231 c-104 209 -118 231 -142 234 -17 2 -71 -18
-147 -54 -84 -39 -127 -55 -143 -51 -34 9 -132 210 -117 239 6 11 63 45 127
75 128 60 152 77 152 104 0 9 -40 102 -90 206 -49 103 -90 195 -90 204 0 33
43 69 149 123 120 61 156 68 188 34 12 -13 58 -104 103 -203 45 -99 87 -186
92 -192 18 -22 53 -14 162 38 146 70 149 69 203 -55 46 -107 52 -136 27 -156
-8 -8 -64 -37 -124 -66 -70 -34 -110 -59 -114 -72 -8 -23 250 -589 275 -605
12 -8 54 2 159 36 78 25 149 43 156 40 7 -3 26 -43 41 -90 16 -50 35 -89 46
-94 11 -7 68 -6 158 1 164 13 169 11 169 -60 l0 -48 -98 5 c-84 5 -100 3 -115
-11 -9 -10 -17 -26 -17 -36 0 -21 25 -50 43 -50 95 -3 448 -30 456 -35 6 -3
11 -24 11 -45 0 -50 14 -87 37 -94 10 -3 70 -10 133 -16 159 -15 150 -11 150
-80 0 -83 11 -91 117 -88 73 3 88 6 99 23 11 16 11 25 1 45 -10 21 -21 26 -60
28 -47 3 -47 3 -54 45 -4 29 -17 53 -42 78 -32 33 -43 37 -106 43 -170 16
-162 13 -169 55 -13 82 -72 121 -185 121 -100 0 -101 1 -101 75 0 48 -5 70
-23 96 -38 56 -56 61 -208 54 l-135 -6 -18 57 c-10 31 -32 72 -49 91 -49 52
-90 54 -227 8 -61 -20 -115 -33 -119 -29 -11 12 -201 431 -201 442 0 4 34 23
76 42 90 39 132 72 150 117 21 49 17 74 -22 170 -59 145 -82 180 -129 203 -60
29 -91 25 -195 -25 -51 -25 -94 -44 -96 -43 -1 2 -36 77 -78 167 -82 178 -100
204 -161 232 -47 22 -87 23 -135 5z"/>
<path d="M3134 4602 c-167 -58 -286 -217 -288 -387 -1 -115 52 -229 127 -275
65 -40 158 -15 192 51 22 41 16 107 -15 176 -21 46 -22 54 -10 83 9 23 26 38
56 51 58 26 97 16 152 -38 50 -51 50 -51 6 -173 -18 -50 -28 -104 -32 -161 -8
-147 29 -252 130 -366 61 -69 77 -111 61 -160 l-10 -28 -468 -3 c-325 -1 -472
-6 -482 -13 -16 -14 -17 -61 -1 -77 9 -9 124 -12 455 -12 244 0 443 -4 443 -9
0 -4 -13 -37 -29 -72 l-29 -64 -155 4 -155 3 -17 -26 c-16 -24 -16 -28 -2 -50
15 -22 23 -24 154 -31 76 -4 144 -12 151 -17 7 -6 12 -33 12 -63 0 -89 6 -92
205 -106 185 -12 205 -19 205 -71 l0 -28 -78 0 c-87 0 -122 -16 -122 -54 0
-47 18 -51 254 -56 l220 -5 15 -30 c8 -16 17 -37 21 -45 9 -20 57 -25 77 -9
21 18 12 88 -17 129 -34 48 -91 70 -182 70 l-78 0 0 28 c0 41 -40 114 -77 138
-32 21 -50 24 -249 40 l-81 6 -11 47 c-10 45 -9 50 60 206 107 240 105 295
-16 431 -124 142 -134 319 -29 528 43 85 109 185 128 192 9 4 841 -421 863
-441 5 -5 -97 -184 -152 -265 -119 -179 -185 -218 -341 -205 -165 13 -208 -19
-319 -237 -69 -135 -77 -157 -67 -176 16 -30 58 -39 79 -18 9 9 48 78 87 153
41 81 81 145 96 156 22 16 46 19 155 20 109 2 136 5 176 24 65 30 125 89 199
193 69 97 75 101 151 80 47 -14 98 -61 98 -92 0 -31 -32 -61 -90 -86 -64 -28
-92 -62 -97 -119 -6 -61 24 -111 81 -132 80 -31 229 19 318 106 68 67 102 148
101 243 0 109 -30 179 -107 255 -57 56 -107 84 -748 418 -377 197 -708 365
-734 373 -64 19 -178 17 -240 -4z m282 -126 c122 -58 119 -54 79 -111 -19 -26
-37 -50 -40 -53 -2 -3 -14 7 -26 21 -52 67 -160 100 -246 76 -63 -17 -139 -91
-149 -143 -9 -51 0 -107 26 -160 24 -47 22 -72 -7 -83 -11 -5 -26 4 -48 30
-123 142 -26 398 173 454 73 20 151 10 238 -31z m1258 -657 c131 -69 186 -146
186 -261 0 -121 -92 -222 -224 -247 -86 -16 -101 33 -20 64 61 23 119 80 134
132 11 36 11 49 -4 87 -28 72 -102 133 -183 151 -18 3 -33 10 -33 15 0 12 51
100 58 100 4 0 42 -19 86 -41z"/>
<path d="M3865 4040 c-118 -37 -189 -212 -126 -313 92 -149 315 -36 316 160 0
47 -5 68 -21 89 -45 60 -106 83 -169 64z m79 -116 c21 -55 -14 -139 -67 -157
-37 -12 -57 5 -57 50 0 63 47 123 96 123 12 0 25 -7 28 -16z"/>
<path d="M346 3704 c-12 -11 -16 -35 -16 -87 0 -167 -47 -305 -121 -355 -76
-52 -63 -95 38 -127 119 -37 218 -123 265 -228 47 -106 52 -112 82 -115 46 -6
51 8 51 146 0 99 4 140 20 185 22 67 15 90 -29 95 -37 5 -52 -11 -71 -71 -9
-29 -18 -58 -21 -65 -3 -9 -22 3 -58 35 -29 27 -78 62 -109 78 l-55 29 25 32
c27 36 72 155 73 192 0 12 2 22 4 22 2 0 29 -24 60 -54 63 -62 177 -123 246
-132 38 -5 48 -3 64 15 16 17 18 27 10 48 -7 21 -21 29 -69 43 -33 9 -76 25
-95 35 -54 28 -141 124 -179 195 -53 102 -79 121 -115 84z"/>
<path d="M3882 3208 c-7 -7 -12 -24 -12 -39 0 -24 37 -59 260 -249 143 -122
260 -223 260 -224 0 -2 -8 -18 -17 -37 -36 -70 -14 -203 41 -248 13 -11 11
-17 -14 -52 -49 -69 -57 -170 -19 -241 9 -17 5 -25 -26 -51 -39 -32 -85 -115
-85 -154 0 -23 -1 -23 -145 -23 -132 0 -147 -2 -165 -20 -24 -24 -25 -39 -6
-66 13 -17 29 -19 143 -22 l128 -3 -40 -43 c-43 -45 -65 -99 -65 -163 0 -38
-1 -39 -45 -51 -63 -17 -130 -83 -147 -145 l-12 -47 -51 0 c-32 0 -69 -9 -102
-25 l-52 -24 -21 29 c-26 36 -76 67 -124 77 -37 8 -37 8 -41 66 -2 39 -12 72
-30 103 l-26 45 27 32 c38 45 54 88 54 147 0 59 -21 114 -56 151 l-26 27 28
42 c52 78 44 195 -18 266 l-30 34 22 35 22 35 392 0 c426 0 429 0 429 55 0 55
-3 55 -420 55 l-383 0 0 21 c0 35 -51 117 -89 143 -94 64 -200 56 -282 -23
-35 -33 -51 -59 -60 -94 l-13 -47 -64 0 c-59 0 -65 2 -90 31 -52 63 -80 69
-342 69 -134 0 -251 -5 -273 -11 -22 -6 -53 -27 -75 -50 l-37 -39 -797 0 -798
0 0 25 c0 44 30 62 115 70 92 9 115 25 115 83 0 64 18 73 186 86 166 13 174
18 174 94 0 49 12 77 39 92 11 5 76 15 145 21 112 10 129 9 151 -5 18 -12 25
-25 25 -50 0 -29 -4 -34 -38 -44 -75 -23 -131 -115 -116 -191 16 -78 104 -63
104 18 0 20 6 45 13 54 13 18 363 107 421 107 37 0 70 -29 80 -72 6 -24 3 -27
-44 -38 -27 -7 -61 -21 -75 -32 -70 -55 -74 -168 -7 -168 31 0 52 16 52 40 0
39 26 51 235 104 115 30 215 52 222 49 7 -3 15 -14 18 -24 4 -11 17 -27 31
-35 22 -15 26 -15 50 1 23 15 25 22 21 53 -8 46 -60 100 -105 108 -24 5 -74
-3 -158 -25 -68 -17 -125 -31 -127 -31 -2 0 -9 18 -16 40 -15 52 -56 99 -106
121 -52 24 -70 24 -195 -6 -58 -14 -115 -27 -127 -30 -18 -4 -23 1 -28 28 -11
48 -42 93 -82 118 -28 17 -49 22 -102 21 -115 -3 -249 -20 -287 -38 -45 -22
-90 -82 -99 -133 l-6 -39 -107 -7 c-154 -10 -208 -38 -237 -122 -12 -34 -18
-39 -57 -46 -81 -15 -89 -18 -128 -53 -43 -39 -60 -83 -60 -154 1 -71 166
-1078 180 -1095 17 -21 53 -19 74 4 17 18 16 27 -8 183 -15 89 -29 175 -32
191 l-6 27 489 0 c426 0 491 2 511 16 28 20 30 69 3 84 -13 6 -194 10 -519 10
l-499 0 -37 228 c-20 125 -36 233 -36 240 0 9 164 12 785 12 432 0 785 -1 785
-2 0 -2 9 -96 20 -210 12 -136 24 -217 35 -237 l16 -31 -140 0 c-151 0 -171
-6 -171 -55 0 -53 14 -55 402 -55 216 0 377 4 407 11 71 15 128 59 156 122 20
43 27 87 41 255 l17 202 66 0 c65 -1 66 -1 103 -44 34 -40 36 -45 21 -57 -27
-23 -53 -91 -53 -142 0 -54 19 -105 56 -154 l25 -32 -27 -41 c-45 -68 -43
-185 5 -249 18 -24 18 -25 -15 -68 -77 -100 -71 -209 15 -295 33 -33 61 -51
94 -60 45 -12 47 -14 47 -48 0 -65 21 -113 69 -161 73 -74 169 -88 262 -40
l42 22 30 -37 c40 -48 98 -74 167 -74 101 0 188 64 212 156 l12 44 56 0 c127
1 220 93 220 219 0 47 2 51 28 57 129 31 202 152 169 280 -7 28 -5 32 15 37
36 10 97 65 119 109 26 51 28 135 4 187 l-17 39 42 39 c24 21 51 56 61 78 33
72 20 171 -30 227 l-28 31 33 48 c64 96 54 200 -26 280 -67 67 -123 80 -240
54 -21 -4 -64 28 -288 220 -261 222 -291 242 -320 213z m781 -568 c49 -55 33
-141 -33 -175 -50 -26 -98 -19 -136 19 -29 29 -34 41 -34 79 0 112 127 160
203 77z m-1313 -75 c74 -38 78 -150 8 -199 -29 -20 -90 -20 -129 0 -29 15 -59
65 -59 100 0 30 32 85 59 99 34 19 85 19 121 0z m-517 -127 c19 -26 19 -28 2
-235 -10 -114 -23 -223 -31 -240 -25 -63 -58 -73 -242 -73 -246 0 -244 -2
-271 300 -11 129 -15 214 -9 230 18 49 25 51 287 48 l244 -3 20 -27z m1823
-131 c30 -27 37 -41 38 -74 2 -77 -44 -123 -123 -123 -110 0 -151 154 -57 211
49 30 100 25 142 -14z m-1286 -82 c58 -30 76 -104 40 -163 -29 -48 -80 -67
-133 -50 -54 17 -82 57 -82 115 0 39 5 49 37 79 43 38 88 45 138 19z m1180
-230 c62 -32 78 -129 29 -181 -74 -79 -204 -30 -204 77 0 89 95 145 175 104z
m-1138 -133 c63 -62 38 -161 -47 -191 -135 -46 -210 149 -84 217 37 20 97 8
131 -26z m1009 -190 c26 -23 33 -38 37 -80 4 -49 2 -54 -31 -87 -29 -29 -42
-35 -77 -35 -79 0 -119 39 -120 114 0 41 5 53 34 82 29 29 41 34 80 34 36 0
52 -6 77 -28z m-1061 -127 c68 -35 82 -119 30 -179 -74 -84 -200 -35 -200 79
0 47 14 71 53 95 38 24 78 25 117 5z m848 -141 c37 -24 56 -80 43 -124 -31
-103 -169 -121 -217 -28 -56 109 70 220 174 152z m-606 -153 c42 -47 40 -109
-6 -159 -30 -32 -40 -37 -78 -37 -55 0 -95 25 -115 73 -20 47 -5 100 39 137
28 24 39 27 82 22 40 -3 55 -11 78 -36z m325 -47 c64 -42 67 -131 6 -184 -32
-29 -41 -32 -81 -27 -32 3 -53 13 -74 34 -100 100 31 255 149 177z"/>
<path d="M2527 2272 c-12 -13 -17 -37 -17 -85 0 -59 3 -68 24 -82 18 -12 30
-13 50 -6 25 10 26 13 26 89 0 47 -5 83 -12 90 -18 18 -53 15 -71 -6z"/>
<path d="M3697 1872 c-41 -45 2 -100 68 -88 53 10 70 51 35 86 -26 26 -81 26
-103 2z"/>
<path d="M1623 1327 c-70 -70 -73 -75 -73 -120 l0 -47 -55 0 -55 0 0 39 c0 43
-29 92 -73 125 -27 20 -43 21 -253 24 -213 3 -228 2 -269 -18 -58 -28 -84 -72
-92 -153 l-6 -65 -58 -4 c-66 -5 -100 -25 -136 -78 -19 -27 -23 -47 -23 -111
l0 -78 -37 -7 c-99 -18 -163 -90 -163 -185 l0 -39 -43 0 c-63 0 -107 -16 -144
-52 -80 -77 -66 -234 26 -295 32 -22 43 -23 226 -23 l193 0 12 -30 c17 -41 72
-88 112 -95 18 -3 146 -5 285 -3 277 3 276 3 327 72 30 39 30 143 0 182 -46
62 -65 69 -199 72 -141 4 -165 -3 -165 -48 0 -49 32 -62 136 -54 56 4 99 2
117 -5 26 -10 28 -14 25 -58 l-3 -48 -260 -3 c-236 -2 -261 -1 -272 15 -8 10
-13 49 -13 100 0 71 -3 84 -19 93 -45 24 -81 -1 -81 -56 l0 -34 -178 0 c-206
0 -212 2 -212 83 0 73 9 77 165 77 145 0 165 7 165 55 0 33 -26 55 -66 55 -38
0 -43 15 -24 66 20 52 27 53 282 54 225 0 239 -1 258 -20 24 -24 25 -48 5 -77
-14 -20 -25 -22 -176 -25 -145 -3 -162 -5 -175 -22 -19 -27 -18 -42 6 -66 18
-18 33 -20 173 -20 139 0 157 2 197 23 66 32 92 78 88 149 l-3 57 33 6 c53 10
108 67 122 126 21 85 1 149 -46 149 -37 0 -54 -26 -54 -81 0 -94 14 -89 -270
-89 l-250 0 0 64 c0 58 3 67 26 85 22 17 41 21 100 21 97 0 104 8 104 111 0
127 -15 119 234 119 251 0 246 2 246 -98 0 -87 9 -92 175 -92 l130 0 155 -155
c107 -107 165 -158 188 -164 49 -14 99 5 158 61 49 46 55 49 90 42 40 -7 84
-43 84 -69 0 -12 -13 -15 -62 -15 -115 0 -180 -65 -193 -193 -5 -45 -10 -57
-24 -57 -9 0 -39 -11 -67 -25 -87 -43 -122 -125 -98 -232 l4 -23 -204 0 c-113
0 -216 -4 -230 -10 -34 -12 -44 -54 -21 -80 18 -19 34 -20 523 -20 552 0 549
0 592 59 39 56 38 125 -3 140 -35 13 -61 -2 -73 -45 l-11 -39 -217 -3 -217 -2
-24 24 c-30 31 -33 84 -6 117 14 18 32 24 86 30 88 9 95 18 95 126 0 76 2 86
25 108 23 24 28 25 174 25 82 0 157 -3 166 -6 20 -8 45 -56 45 -89 0 -25 0
-25 -89 -25 -49 0 -101 -4 -114 -9 -33 -13 -43 -46 -23 -76 l16 -25 286 0 286
0 29 -29 c24 -25 29 -38 29 -78 0 -39 -5 -54 -23 -71 -21 -20 -34 -22 -143
-22 -92 0 -125 -4 -142 -16 -28 -20 -30 -69 -3 -84 26 -13 235 -13 284 1 41
11 103 60 112 88 5 15 19 19 83 23 127 8 228 66 287 167 l30 51 334 0 c226 0
346 4 373 12 52 15 121 78 146 131 29 61 97 499 82 526 -13 25 -61 28 -80 6
-6 -8 -27 -112 -46 -232 -40 -252 -54 -292 -118 -323 -40 -19 -61 -20 -353
-20 l-310 0 -7 55 c-15 130 -85 234 -196 291 -49 26 -65 29 -150 29 -82 0
-103 -4 -151 -26 -118 -56 -189 -161 -197 -292 l-5 -78 -61 3 c-57 3 -61 5
-64 28 -7 70 -16 93 -44 126 -41 46 -72 61 -145 69 -56 7 -62 10 -68 34 -17
69 -115 151 -182 151 -16 0 -23 6 -23 20 0 10 -13 35 -30 53 -16 19 -30 37
-30 41 0 3 96 6 213 6 225 0 237 2 237 46 0 52 -10 54 -298 54 l-266 0 -121
120 -122 120 -53 0 c-53 0 -54 -1 -127 -73z m319 -204 c98 -98 178 -184 178
-192 0 -20 -80 -101 -100 -101 -19 0 -370 351 -370 369 0 8 20 33 44 57 24 24
49 44 57 44 7 0 93 -80 191 -177z m1325 -322 c46 -23 100 -80 119 -127 39 -93
0 -228 -83 -291 -44 -32 -137 -59 -171 -49 -9 3 -29 32 -43 65 -29 64 -80 107
-141 120 l-33 7 1 66 c0 52 6 74 27 111 67 113 210 157 324 98z"/>
<path d="M2865 1140 c-15 -16 -17 -26 -9 -48 8 -24 15 -27 59 -30 27 -2 59 -1
71 2 28 7 37 44 18 73 -20 32 -112 33 -139 3z"/>
<path d="M1281 763 c-79 -39 -109 -155 -60 -228 13 -20 43 -44 66 -56 39 -19
57 -20 286 -17 230 3 247 4 273 24 53 39 69 71 69 134 0 66 -18 99 -75 138
-32 21 -40 22 -279 22 -208 0 -251 -3 -280 -17z m511 -95 c30 -24 31 -56 4
-83 l-26 -26 -221 3 c-205 3 -222 4 -235 22 -21 29 -17 63 8 80 19 13 59 16
238 16 158 0 220 -3 232 -12z"/>
</g>
</svg>
